<svg width="12" height="16" viewBox="0 0 12 16" fill="none" xmlns="http://www.w3.org/2000/svg">
<path d="M5.46967 6.53033C5.76256 6.82322 6.23744 6.82322 6.53033 6.53033L11.3033 1.75736C11.5962 1.46447 11.5962 0.989593 11.3033 0.696699C11.0104 0.403806 10.5355 0.403806 10.2426 0.696699L6 4.93934L1.75736 0.696699C1.46447 0.403806 0.989593 0.403806 0.696699 0.696699C0.403806 0.989593 0.403806 1.46447 0.696699 1.75736L5.46967 6.53033ZM5.25 5V6H6.75V5H5.25Z" fill="#242423"/>
<path d="M5.46967 15.5303C5.76256 15.8232 6.23744 15.8232 6.53033 15.5303L11.3033 10.7574C11.5962 10.4645 11.5962 9.98959 11.3033 9.6967C11.0104 9.40381 10.5355 9.40381 10.2426 9.6967L6 13.9393L1.75736 9.6967C1.46447 9.40381 0.989593 9.40381 0.696699 9.6967C0.403806 9.98959 0.403806 10.4645 0.696699 10.7574L5.46967 15.5303ZM5.25 14V15H6.75V14H5.25Z" fill="#242423"/>
</svg>
