<svg viewBox="0 0 24 24" xml:space="preserve" xmlns="http://www.w3.org/2000/svg"><path d="m21.654 11.215 2.313 1.445a11.97 11.97 0 0 1-.864 3.878l-2.725.311a2.006 2.006 0 0 0-1.761 2.214l.31 2.717a11.948 11.948 0 0 1-3.576 1.729l-1.937-1.937c-.389-.389-.901-.583-1.414-.583s-1.025.194-1.414.583L8.65 23.508a11.948 11.948 0 0 1-3.576-1.729l.31-2.717a2.006 2.006 0 0 0-1.761-2.214l-2.725-.311a11.97 11.97 0 0 1-.864-3.878l2.313-1.445a2.006 2.006 0 0 0 .637-2.756L1.532 6.135a12.034 12.034 0 0 1 2.493-3.092l2.573.911a2.007 2.007 0 0 0 2.554-1.218l.911-2.575c.633-.103 1.276-.17 1.938-.17s1.305.067 1.938.17l.911 2.575a2.007 2.007 0 0 0 2.554 1.218l2.573-.911a12.034 12.034 0 0 1 2.493 3.092l-1.452 2.324a2.005 2.005 0 0 0 .636 2.756zM16 11.991c0-2.206-1.794-4-4-4s-4 1.794-4 4 1.794 4 4 4 4-1.794 4-4z" fill="#e9e9e9" class="fill-000000"></path></svg>