<svg width="16" height="16" viewBox="0 0 16 16" fill="none" xmlns="http://www.w3.org/2000/svg">
<path d="M8.68539 1.33401C9.17188 1.33214 9.65837 1.33703 10.1447 1.34868L10.2741 1.35334C10.4234 1.35868 10.5707 1.36534 10.7487 1.37334C11.4581 1.40668 11.9421 1.51868 12.3667 1.68334C12.8067 1.85268 13.1774 2.08201 13.5481 2.45268C13.887 2.78575 14.1493 3.18864 14.3167 3.63334C14.4814 4.05801 14.5934 4.54268 14.6267 5.25201C14.6347 5.42934 14.6414 5.57734 14.6467 5.72668L14.6507 5.85601C14.6626 6.34214 14.6677 6.82841 14.6661 7.31468L14.6667 7.81201V8.68534C14.6684 9.17184 14.6633 9.65833 14.6514 10.1447L14.6474 10.274C14.6421 10.4233 14.6354 10.5707 14.6274 10.7487C14.5941 11.458 14.4807 11.942 14.3167 12.3667C14.1498 12.8119 13.8875 13.2151 13.5481 13.548C13.2147 13.8869 12.8116 14.1492 12.3667 14.3167C11.9421 14.4813 11.4581 14.5933 10.7487 14.6267C10.5707 14.6347 10.4234 14.6413 10.2741 14.6467L10.1447 14.6507C9.65838 14.6625 9.17188 14.6676 8.68539 14.666L8.18806 14.6667H7.31539C6.8289 14.6683 6.34241 14.6632 5.85606 14.6513L5.72673 14.6473C5.56847 14.6416 5.41024 14.6349 5.25206 14.6273C4.54273 14.594 4.05873 14.4807 3.63339 14.3167C3.18851 14.1496 2.78555 13.8872 2.45273 13.548C2.11342 13.2149 1.85088 12.8117 1.68339 12.3667C1.51873 11.942 1.40673 11.458 1.37339 10.7487C1.36597 10.5905 1.3593 10.4323 1.35339 10.274L1.35006 10.1447C1.33777 9.65833 1.33221 9.17184 1.33339 8.68534V7.31468C1.33153 6.82841 1.33642 6.34214 1.34806 5.85601L1.35273 5.72668C1.35806 5.57734 1.36473 5.42934 1.37273 5.25201C1.40606 4.54201 1.51806 4.05868 1.68273 3.63334C1.85031 3.18842 2.11337 2.78564 2.45339 2.45334C2.78599 2.11385 3.1887 1.85106 3.63339 1.68334C4.05873 1.51868 4.54206 1.40668 5.25206 1.37334L5.72673 1.35334L5.85606 1.35001C6.34218 1.33773 6.82845 1.33217 7.31473 1.33334L8.68539 1.33401ZM8.00006 4.66734C7.5584 4.6611 7.1199 4.74269 6.71004 4.90739C6.30019 5.07209 5.92716 5.3166 5.61262 5.62671C5.29809 5.93683 5.04833 6.30637 4.87785 6.71385C4.70738 7.12134 4.61959 7.55864 4.61959 8.00034C4.61959 8.44205 4.70738 8.87935 4.87785 9.28684C5.04833 9.69432 5.29809 10.0639 5.61262 10.374C5.92716 10.6841 6.30019 10.9286 6.71004 11.0933C7.1199 11.258 7.5584 11.3396 8.00006 11.3333C8.88411 11.3333 9.73196 10.9822 10.3571 10.357C10.9822 9.73191 11.3334 8.88407 11.3334 8.00001C11.3334 7.11596 10.9822 6.26811 10.3571 5.64299C9.73196 5.01787 8.88411 4.66734 8.00006 4.66734ZM8.00006 6.00068C8.26573 5.99578 8.52971 6.04388 8.77659 6.14215C9.02347 6.24042 9.24828 6.38691 9.43791 6.57304C9.62754 6.75918 9.77818 6.98123 9.88102 7.22624C9.98387 7.47124 10.0369 7.73429 10.0369 8C10.0369 8.26572 9.98404 8.52878 9.88128 8.77382C9.77852 9.01886 9.62795 9.24097 9.43839 9.42717C9.24882 9.61337 9.02405 9.75992 8.77721 9.85828C8.53037 9.95664 8.2664 10.0048 8.00073 10C7.47029 10 6.96159 9.7893 6.58651 9.41422C6.21144 9.03915 6.00073 8.53044 6.00073 8.00001C6.00073 7.46958 6.21144 6.96087 6.58651 6.5858C6.96159 6.21072 7.47029 6.00001 8.00073 6.00001L8.00006 6.00068ZM11.5001 3.66734C11.285 3.67595 11.0816 3.76744 10.9325 3.92266C10.7833 4.07787 10.7001 4.28477 10.7001 4.50001C10.7001 4.71525 10.7833 4.92215 10.9325 5.07736C11.0816 5.23258 11.285 5.32407 11.5001 5.33268C11.7211 5.33268 11.933 5.24488 12.0893 5.0886C12.2456 4.93232 12.3334 4.72036 12.3334 4.49934C12.3334 4.27833 12.2456 4.06637 12.0893 3.91009C11.933 3.75381 11.7211 3.66601 11.5001 3.66601V3.66734Z" fill="#3A3A39"/>
</svg>
