<svg width="1260" height="275" viewBox="0 0 1260 275" fill="none" xmlns="http://www.w3.org/2000/svg">
<path d="M57.3697 274.42H-0.0103115V5H57.3697V24C61.423 17.92 68.1364 12.6 77.5097 8.03999C86.883 3.22666 97.3964 0.819986 109.05 0.819986C133.623 0.819986 154.396 10.5733 171.37 30.08C188.596 49.5867 197.21 72.8933 197.21 100C197.21 127.107 188.596 150.413 171.37 169.92C154.396 189.427 133.623 199.18 109.05 199.18C97.3964 199.18 86.883 196.9 77.5097 192.34C68.1364 187.527 61.423 182.08 57.3697 176V274.42ZM64.5897 133.82C72.6964 142.687 83.2097 147.12 96.1297 147.12C109.05 147.12 119.436 142.687 127.29 133.82C135.396 124.953 139.45 113.68 139.45 100C139.45 86.32 135.396 75.0467 127.29 66.18C119.436 57.3133 109.05 52.88 96.1297 52.88C83.2097 52.88 72.6964 57.3133 64.5897 66.18C56.7364 75.0467 52.8097 86.32 52.8097 100C52.8097 113.68 56.7364 124.953 64.5897 133.82ZM238.037 195V5H295.417V33.5C298.457 24.8867 304.157 17.6667 312.517 11.84C320.877 5.75999 330.25 2.71998 340.637 2.71998C347.223 2.71998 353.43 3.47999 359.257 5V63.14C350.39 60.1 341.903 58.58 333.797 58.58C321.637 58.58 312.137 62.8867 305.297 71.5C298.71 79.86 295.417 91.0067 295.417 104.94V195H238.037ZM478.919 199.18C449.532 199.18 425.339 189.807 406.339 171.06C387.592 152.313 378.219 128.5 378.219 99.62C378.219 71.2467 387.719 47.6867 406.719 28.94C425.972 10.1933 450.039 0.819986 478.919 0.819986C492.852 0.819986 505.899 3.22666 518.059 8.03999C530.472 12.8533 541.365 19.82 550.739 28.94C560.365 38.06 567.839 49.84 573.159 64.28C578.479 78.72 580.885 95.06 580.379 113.3H434.079C435.092 123.687 439.652 132.427 447.759 139.52C455.865 146.36 467.265 149.78 481.959 149.78C490.319 149.78 497.919 148.133 504.759 144.84C511.599 141.293 516.159 136.987 518.439 131.92H578.479C572.399 151.933 560.239 168.147 541.999 180.56C523.759 192.973 502.732 199.18 478.919 199.18ZM477.399 46.42C466.505 46.42 457.385 49.2067 450.039 54.78C442.945 60.3533 438.132 67.7 435.599 76.82H516.919C514.132 66.4333 508.939 58.8333 501.339 54.02C493.992 48.9533 486.012 46.42 477.399 46.42ZM673.586 195L590.366 5H653.826L699.806 120.52L746.166 5H810.006L726.786 195H673.586ZM907.791 199.18C884.738 199.18 867.005 191.453 854.591 176C842.178 160.547 835.971 139.647 835.971 113.3V5H893.351V103.42C893.351 132.553 903.105 147.12 922.611 147.12C946.425 147.12 958.331 130.527 958.331 97.34V5H1015.71V195H958.331V175.62C947.438 191.327 930.591 199.18 907.791 199.18ZM1157.06 199.18C1127.68 199.18 1103.48 189.807 1084.48 171.06C1065.74 152.313 1056.36 128.5 1056.36 99.62C1056.36 71.2467 1065.86 47.6867 1084.86 28.94C1104.12 10.1933 1128.18 0.819986 1157.06 0.819986C1171 0.819986 1184.04 3.22666 1196.2 8.03999C1208.62 12.8533 1219.51 19.82 1228.88 28.94C1238.51 38.06 1245.98 49.84 1251.3 64.28C1256.62 78.72 1259.03 95.06 1258.52 113.3H1112.22C1113.24 123.687 1117.8 132.427 1125.9 139.52C1134.01 146.36 1145.41 149.78 1160.1 149.78C1168.46 149.78 1176.06 148.133 1182.9 144.84C1189.74 141.293 1194.3 136.987 1196.58 131.92H1256.62C1250.54 151.933 1238.38 168.147 1220.14 180.56C1201.9 192.973 1180.88 199.18 1157.06 199.18ZM1155.54 46.42C1144.65 46.42 1135.53 49.2067 1128.18 54.78C1121.09 60.3533 1116.28 67.7 1113.74 76.82H1195.06C1192.28 66.4333 1187.08 58.8333 1179.48 54.02C1172.14 48.9533 1164.16 46.42 1155.54 46.42Z" fill="currentColor" fill-opacity="0.86"/>
</svg>
