<svg width="79" height="18" viewBox="0 0 79 18" fill="none" xmlns="http://www.w3.org/2000/svg">
<path d="M4.53388 17.516H0.909875V0.5H4.53388V1.7C4.78988 1.316 5.21388 0.979999 5.80588 0.692C6.39788 0.387999 7.06188 0.235999 7.79788 0.235999C9.34988 0.235999 10.6619 0.851999 11.7339 2.084C12.8219 3.316 13.3659 4.788 13.3659 6.5C13.3659 8.212 12.8219 9.684 11.7339 10.916C10.6619 12.148 9.34988 12.764 7.79788 12.764C7.06188 12.764 6.39788 12.62 5.80588 12.332C5.21388 12.028 4.78988 11.684 4.53388 11.3V17.516ZM4.98988 8.636C5.50188 9.196 6.16588 9.476 6.98188 9.476C7.79788 9.476 8.45388 9.196 8.94988 8.636C9.46188 8.076 9.71788 7.364 9.71788 6.5C9.71788 5.636 9.46188 4.924 8.94988 4.364C8.45388 3.804 7.79788 3.524 6.98188 3.524C6.16588 3.524 5.50188 3.804 4.98988 4.364C4.49388 4.924 4.24588 5.636 4.24588 6.5C4.24588 7.364 4.49388 8.076 4.98988 8.636ZM15.6286 12.5V0.5H19.2526V2.3C19.4446 1.756 19.8046 1.3 20.3326 0.931999C20.8606 0.547999 21.4526 0.355999 22.1086 0.355999C22.5246 0.355999 22.9166 0.403999 23.2846 0.5V4.172C22.7246 3.98 22.1886 3.884 21.6766 3.884C20.9086 3.884 20.3086 4.156 19.8766 4.7C19.4606 5.228 19.2526 5.932 19.2526 6.812V12.5H15.6286ZM30.5264 12.764C28.6704 12.764 27.1424 12.172 25.9424 10.988C24.7584 9.804 24.1664 8.3 24.1664 6.476C24.1664 4.684 24.7664 3.196 25.9664 2.012C27.1824 0.827999 28.7024 0.235999 30.5264 0.235999C31.4064 0.235999 32.2304 0.387999 32.9984 0.692C33.7824 0.996 34.4704 1.436 35.0624 2.012C35.6704 2.588 36.1424 3.332 36.4784 4.244C36.8144 5.156 36.9664 6.188 36.9344 7.34H27.6944C27.7584 7.996 28.0464 8.548 28.5584 8.996C29.0704 9.428 29.7904 9.644 30.7184 9.644C31.2464 9.644 31.7264 9.54 32.1584 9.332C32.5904 9.108 32.8784 8.836 33.0224 8.516H36.8144C36.4304 9.78 35.6624 10.804 34.5104 11.588C33.3584 12.372 32.0304 12.764 30.5264 12.764ZM30.4304 3.116C29.7424 3.116 29.1664 3.292 28.7024 3.644C28.2544 3.996 27.9504 4.46 27.7904 5.036H32.9264C32.7504 4.38 32.4224 3.9 31.9424 3.596C31.4784 3.276 30.9744 3.116 30.4304 3.116ZM42.5054 12.5L37.2494 0.5H41.2574L44.1614 7.796L47.0894 0.5H51.1214L45.8654 12.5H42.5054ZM56.9816 12.764C55.5256 12.764 54.4056 12.276 53.6216 11.3C52.8376 10.324 52.4456 9.004 52.4456 7.34V0.5H56.0696V6.716C56.0696 8.556 56.6856 9.476 57.9176 9.476C59.4216 9.476 60.1736 8.428 60.1736 6.332V0.5H63.7976V12.5H60.1736V11.276C59.4856 12.268 58.4216 12.764 56.9816 12.764ZM72.4093 12.764C70.5533 12.764 69.0253 12.172 67.8253 10.988C66.6413 9.804 66.0493 8.3 66.0493 6.476C66.0493 4.684 66.6493 3.196 67.8493 2.012C69.0653 0.827999 70.5853 0.235999 72.4093 0.235999C73.2893 0.235999 74.1133 0.387999 74.8813 0.692C75.6653 0.996 76.3533 1.436 76.9453 2.012C77.5533 2.588 78.0253 3.332 78.3613 4.244C78.6973 5.156 78.8493 6.188 78.8173 7.34H69.5773C69.6413 7.996 69.9293 8.548 70.4413 8.996C70.9533 9.428 71.6733 9.644 72.6013 9.644C73.1293 9.644 73.6093 9.54 74.0413 9.332C74.4733 9.108 74.7613 8.836 74.9053 8.516H78.6973C78.3133 9.78 77.5453 10.804 76.3933 11.588C75.2413 12.372 73.9133 12.764 72.4093 12.764ZM72.3133 3.116C71.6253 3.116 71.0493 3.292 70.5853 3.644C70.1373 3.996 69.8333 4.46 69.6733 5.036H74.8093C74.6333 4.38 74.3053 3.9 73.8253 3.596C73.3613 3.276 72.8573 3.116 72.3133 3.116Z" fill="#E99D43"/>
</svg>
