<svg data-name="Layer 3" viewBox="0 0 24 24" xmlns="http://www.w3.org/2000/svg"><path d="M5 21h15a1 1 0 0 0 1-1V5.5A1.5 1.5 0 0 0 19.5 4h-9A1.5 1.5 0 0 0 9 5.5v3.833a2.484 2.484 0 0 1 2.062.495l2.438 1.95V11.5a.5.5 0 0 1 1 0c-.005.51.012.884-.013 1.067l.761.609A2 2 0 0 1 16 14.741V15a.5.5 0 0 1 .5.5v1a.5.5 0 0 1-.5.5v2.5a.5.5 0 0 1-1 0v-4.761a1 1 0 0 0-.375-.78l-4.188-3.35a1.5 1.5 0 0 0-1.874 0l-4.188 3.35A1 1 0 0 0 4 14.74V20a1 1 0 0 0 1 1Zm7.5-12.5a.5.5 0 0 1-1 0v-1a.5.5 0 0 1 1 0Zm2 0a.5.5 0 0 1-1 0v-1a.5.5 0 0 1 1 0Zm3-1a.5.5 0 0 1 1 0v1a.5.5 0 0 1-1 0Zm0 4a.5.5 0 0 1 1 0v1a.5.5 0 0 1-1 0Zm0 4a.5.5 0 0 1 1 0v1a.5.5 0 0 1-1 0Zm-2-8a.5.5 0 0 1 1 0v1a.5.5 0 0 1-1 0ZM16 13a.5.5 0 0 1-.5-.5v-1a.5.5 0 0 1 1 0v1a.5.5 0 0 1-.5.5Zm-7.5 4h2v3h-2Z" fill="#e9e9e9" class="fill-000000"></path></svg>