<svg data-name="Layer 4" viewBox="0 0 24 24" xmlns="http://www.w3.org/2000/svg"><path d="M21 8.393v-.568a2.487 2.487 0 0 0-.128-.791L20.2 5.026A1.5 1.5 0 0 0 18.779 4H6.221A1.5 1.5 0 0 0 4.8 5.025l-.671 2.008A2.471 2.471 0 0 0 4 7.825v.568a2.661 2.661 0 0 0 1 2.08V20h-.5a.5.5 0 0 0 0 1h16a.5.5 0 0 0 0-1H20v-9.527a2.661 2.661 0 0 0 1-2.08ZM18.779 5a.5.5 0 0 1 .474.342L19.807 7h-2.883l-.334-2ZM13 5h2.577l.338 2H13ZM9.424 5H12v2H9.09ZM12 8v.5a1.5 1.5 0 0 1-3 0V8ZM5.747 5.341A.5.5 0 0 1 6.221 5h2.19l-.329 2H5.194ZM6.5 10A1.547 1.547 0 0 1 5 8.393V8h3v.5A1.5 1.5 0 0 1 6.5 10Zm6.5 6.75a.25.25 0 0 1-.25.25h-4.5a.25.25 0 0 1-.25-.25v-3.5a.25.25 0 0 1 .25-.25h4.5a.25.25 0 0 1 .25.25ZM14.5 10A1.5 1.5 0 0 1 13 8.5V8h3v.5a1.5 1.5 0 0 1-1.5 1.5ZM19 20h-3v-6.75a.25.25 0 0 1 .25-.25h2.5a.25.25 0 0 1 .25.25Zm-.5-10A1.5 1.5 0 0 1 17 8.5V8h3v.393A1.546 1.546 0 0 1 18.5 10Z" fill="#e9e9e9" class="fill-000000"></path></svg>